<svg class="be-svg" width="100%" height="100%" viewBox="0 0 16 16" fill="#000" xmlns="http://www.w3.org/2000/svg">
<path d="M12.1269 3.85578C11.3379 3.07643 10.0678 3.08032 9.28361 3.86448L2.07405 11.074L1.36694 10.3669L8.57651 3.15737C9.74951 1.98437 11.6495 1.97856 12.8297 3.14436C14.0201 4.32029 14.0259 6.24042 12.8427 7.42361L7.00276 13.2636C6.26721 13.9991 5.07466 13.9991 4.33912 13.2636C3.60357 12.5281 3.60357 11.3355 4.33912 10.6L10.0131 4.92602L10.7202 5.63313L5.04622 11.3071C4.7012 11.6521 4.7012 12.2115 5.04622 12.5565C5.39124 12.9015 5.95063 12.9015 6.29565 12.5565L12.1356 6.7165C12.9266 5.92553 12.9227 4.6419 12.1269 3.85578Z" fill="" fill-opacity="0.9"/>
</svg>
