<svg class="be-svg" width="100%" height="100%" viewBox="0 0 16 16" fill="#000" xmlns="http://www.w3.org/2000/svg">
<path d="M1.242 8.39077C0.991274 8.1906 0.991274 7.80944 1.242 7.60927L6.87938 3.1086C7.20684 2.84717 7.69133 3.08033 7.69133 3.49935L7.69133 7.76543C7.72075 7.71 7.76134 7.65903 7.81309 7.6159L13.1795 3.14379C13.5052 2.8724 13.9996 3.10398 13.9996 3.5279L13.9996 12.4721C13.9996 12.896 13.5052 13.1276 13.1795 12.8562L7.81309 8.38412C7.76134 8.34099 7.72075 8.29002 7.69133 8.23459L7.69133 12.5007C7.69133 12.9197 7.20684 13.1529 6.87937 12.8914L1.242 8.39077ZM6.69133 11.4617L6.69133 4.53833L2.35535 8.00002L6.69133 11.4617ZM12.9996 11.4046L12.9996 4.59544L8.9142 8.00001L12.9996 11.4046Z" fill="" fill-opacity="0.9"/>
</svg>
