<svg class="be-svg" width="100%" height="100%" viewBox="0 0 16 16" fill="#000" xmlns="http://www.w3.org/2000/svg">
<path d="M9.79293 10.7929L7 7.99996L9.79293 5.20703L9.08582 4.49993L5.58579 7.99996L9.08582 11.5L9.79293 10.7929Z" fill="" fill-opacity="0.9"/>
<path d="M8 1C11.866 1 15 4.13401 15 8C15 11.866 11.866 15 8 15C4.13401 15 1 11.866 1 8C1 4.13401 4.13401 1 8 1ZM8 2C4.68629 2 2 4.68629 2 8C2 11.3137 4.68629 14 8 14C11.3137 14 14 11.3137 14 8C14 4.68629 11.3137 2 8 2Z" fill="" fill-opacity="0.9"/>
</svg>
