<svg class="be-svg" width="100%" height="100%" viewBox="0 0 16 16" fill="#000" xmlns="http://www.w3.org/2000/svg">
<path d="M3.5 14V2H8.00011V6.01275H12V8H13V5.70431C13 5.44241 12.8973 5.19096 12.7139 5.004L9.07975 1.29969C8.8917 1.108 8.63445 1 8.36591 1H3.49534C3.02005 1 2.5 1.33727 2.5 1.92191V14.0781C2.5 14.6627 3.02005 15 3.49534 15H7.00003V14H3.5ZM11.3216 5.01275H9.00011V2.64645L11.3216 5.01275Z" fill="" fill-opacity="0.9"/>
<path d="M7.98733 9.5L9.25198 15H10.0955L11.0491 10.7964L12.0157 15H12.8592L14.107 9.5H13.2867L12.435 13.2537L11.5719 9.5H10.5229L9.67132 13.2537L8.80821 9.5H7.98733Z" fill="" fill-opacity="0.9"/>
</svg>
