<svg class="be-svg" width="100%" height="100%" viewBox="0 0 16 16" fill="#000" xmlns="http://www.w3.org/2000/svg">
<path d="M4 2V14H8.49995V15H3.99534C3.52005 15 3 14.6627 3 14.0781V1.92191C3 1.33727 3.52005 1 3.99534 1H8.86584C9.13437 1 9.39162 1.108 9.57968 1.29969L13.2138 5.004C13.3972 5.19096 13.5 5.44241 13.5 5.70431V7.5H12.5V6.01275H8.50004V2H4ZM9.50004 2.64645V5.01275H11.8215L9.50004 2.64645Z" fill="" fill-opacity="0.9"/>
<path d="M11.5 8.42065C10.4292 8.42065 9.49995 9.24178 9.49995 10.3222H10.5C10.5 9.85692 10.9164 9.42065 11.5 9.42065C12.0835 9.42065 12.5 9.85692 12.5 10.3222C12.5 10.6216 12.2198 10.9812 11.7811 11.1477L11.7787 11.1487C11.3356 11.3196 11 11.7405 11 12.2599V12.9207H12V12.2599C12 12.1949 12.0413 12.1195 12.1376 12.0821C12.7956 11.8317 13.5 11.1914 13.5 10.3222C13.5 9.24178 12.5707 8.42065 11.5 8.42065Z" fill="" fill-opacity="0.9"/>
<path d="M11.4999 13.8C11.1685 13.8 10.8999 14.0686 10.8999 14.4C10.8999 14.7314 11.1685 15 11.4999 15C11.8312 15 12.0999 14.7314 12.0999 14.4C12.0999 14.0686 11.8312 13.8 11.4999 13.8Z" fill="" fill-opacity="0.9"/>
</svg>
