<svg class="be-svg" width="100%" height="100%" viewBox="0 0 16 16" fill="#000" xmlns="http://www.w3.org/2000/svg">
<path d="M4 14V2H8.50006V6.01275H12.5V8H13.5V5.70431C13.5 5.44241 13.3972 5.19096 13.2138 5.004L9.5797 1.29969C9.39165 1.108 9.1344 1 8.86586 1H3.99534C3.52005 1 3 1.33727 3 1.92191V14.0781C3 14.6627 3.52005 15 3.99534 15H7.49998V14H4ZM11.8215 5.01275H9.50006V2.64645L11.8215 5.01275Z" fill="" fill-opacity="0.9"/>
<path d="M8.93381 9.5L10.8496 12.3098L8.89787 15H10.0098L11.3883 13.0999L12.6838 15H13.7731L11.9498 12.3259L14 9.5H12.8881L11.4111 11.5358L10.0231 9.5H8.93381Z" fill="" fill-opacity="0.9"/>
</svg>
