<svg class="be-svg" width="100%" height="100%" viewBox="0 0 16 16" fill="#000" xmlns="http://www.w3.org/2000/svg">
<path fill-rule="evenodd" clip-rule="evenodd" d="M4 14V2H8.50008V6.01275H12.5V7.5H13.5V5.70431C13.5 5.44241 13.3973 5.19096 13.2138 5.004L9.57972 1.29969C9.39167 1.108 9.13442 1 8.86589 1L3.99534 1C3.52005 1 3 1.33727 3 1.92191V14.0781C3 14.6627 3.52005 15 3.99534 15H7.5V14H4ZM11.8215 5.01275H9.50008V2.64645L11.8215 5.01275Z" fill="" fill-opacity="0.9"/>
<path d="M9.075 9.075V15H9.925V12.425H12.5C13.0109 12.425 13.425 12.0109 13.425 11.5V10C13.425 9.48914 13.0109 9.075 12.5 9.075H9.075ZM12.5 11.575H9.925V9.925H12.5C12.5414 9.925 12.575 9.95858 12.575 10V11.5C12.575 11.5414 12.5414 11.575 12.5 11.575Z" fill="" fill-opacity="0.9"/>
</svg>
