<svg class="be-svg" width="100%" height="100%" viewBox="0 0 16 16" fill="#000" xmlns="http://www.w3.org/2000/svg">
<path d="M3.57127 1C3.09598 1 2.57593 1.33727 2.57593 1.92191V14.0781C2.57593 14.6627 3.09598 15 3.57127 15H12.5048C12.9801 15 13.5001 14.6627 13.5001 14.0781V5.70431C13.5001 5.44241 13.3974 5.19096 13.214 5.004L9.57985 1.29969C9.3918 1.108 9.13455 1 8.86601 1H3.57127ZM3.57593 11.3636V2H8.57604V6.0092H12.5001V10.2878L10.5759 8.3636L7.57593 11.3636L5.57593 9.3636L3.57593 11.3636ZM3.57593 12.6364L5.57593 10.6364L6.93953 12L4.93953 14H3.57593V12.6364ZM10.5759 9.6364L12.5001 11.5606V14H6.21232L10.5759 9.6364ZM11.8182 5.0092H9.57604V2.72374L11.8182 5.0092Z" fill="" fill-opacity="0.9"/>
</svg>
