<svg class="be-svg" width="100%" height="100%" viewBox="0 0 16 16" fill="#000" xmlns="http://www.w3.org/2000/svg">
<path d="M14.7579 7.60926C15.0086 7.80943 15.0086 8.19058 14.7579 8.39075L9.12049 12.8914C8.79303 13.1529 8.30854 12.9197 8.30854 12.5007L8.30854 8.23459C8.27912 8.29002 8.23853 8.341 8.18678 8.38412L2.82034 12.8562C2.49468 13.1276 2.00024 12.896 2.00024 12.4721L2.00025 3.5279C2.00025 3.10398 2.49468 2.87241 2.82034 3.1438L8.18678 7.61591C8.23853 7.65903 8.27912 7.71 8.30854 7.76544L8.30854 3.49935C8.30854 3.08033 8.79303 2.84717 9.12049 3.1086L14.7579 7.60926ZM9.30854 4.53833L9.30854 11.4617L13.6445 8.00001L9.30854 4.53833ZM3.00025 4.59544L3.00024 11.4046L7.08567 8.00001L3.00025 4.59544Z" fill="" fill-opacity="0.9"/>
</svg>
