<svg class="be-svg" width="100%" height="100%" viewBox="0 0 16 16" fill="#000" xmlns="http://www.w3.org/2000/svg">
<path fill-rule="evenodd" clip-rule="evenodd" d="M12.9997 3.6C12.9997 3.26863 12.7311 3 12.3997 3H8.99975V4L11.3825 4L7.67208 7.7104C6.29899 6.64114 4.31234 6.73766 3.05003 7.99998C1.68319 9.36682 1.68319 11.5829 3.05003 12.9497C4.41686 14.3166 6.63294 14.3166 7.99978 12.9497C9.23096 11.7185 9.35315 9.79831 8.36634 8.43036L11.9997 4.79693V7H12.9997V3.6ZM3.75714 12.2426C2.78082 11.2663 2.78082 9.6834 3.75714 8.70709C4.73345 7.73078 6.31636 7.73078 7.29267 8.70709C8.26898 9.6834 8.26898 11.2663 7.29267 12.2426C6.31636 13.2189 4.73345 13.2189 3.75714 12.2426Z" fill="" fill-opacity="0.9"/>
</svg>
