<svg class="be-svg" width="100%" height="100%" viewBox="0 0 16 16" fill="#000" xmlns="http://www.w3.org/2000/svg">
<path d="M14.9944 8C14.9944 4.13401 11.8604 1 7.99439 1C4.12839 0.999998 0.994386 4.134 0.994385 8C0.994383 11.866 4.12839 15 7.99438 15C11.8604 15 14.9944 11.866 14.9944 8ZM5.80273 6.6315C5.80273 5.42262 6.78535 4.44 7.99424 4.44C9.20312 4.44 10.1857 5.42262 10.1857 6.6315C10.1857 7.60163 9.44315 8.35248 8.70124 8.65455C8.58029 8.70488 8.49428 8.82451 8.49428 8.97008V9.7675H7.49428V8.97008C7.49428 8.41041 7.83313 7.931 8.32065 7.7298L8.3232 7.72875C8.81796 7.52775 9.18574 7.07185 9.18574 6.6315C9.18574 5.9749 8.65084 5.44 7.99424 5.44C7.33764 5.44 6.80273 5.9749 6.80273 6.6315H5.80273ZM7.46697 11.1734C7.46697 10.8823 7.70302 10.6462 7.99419 10.6462C8.28537 10.6462 8.52141 10.8823 8.52141 11.1734C8.52141 11.4646 8.28537 11.7007 7.99419 11.7007C7.70302 11.7007 7.46697 11.4646 7.46697 11.1734Z" fill="" fill-opacity="0.9"/>
</svg>
