<svg class="be-svg" width="100%" height="100%" viewBox="0 0 16 16" fill="#000" xmlns="http://www.w3.org/2000/svg">
<path d="M1.1001 7.9C1.1001 4.08927 4.18928 1.00005 8 1C11.8108 1 14.9001 4.08923 14.9001 7.9V8.1C14.9001 11.9108 11.8109 15 8.0001 15C4.18938 14.9999 1.1001 11.9107 1.1001 8.1V7.9ZM13.8868 8.5H10.8869C10.7905 10.419 10.1384 12.3152 8.93067 13.927C11.6183 13.5012 13.7019 11.2606 13.8868 8.5ZM10.8869 7.5H13.8868C13.7019 4.73941 11.6183 2.4988 8.93067 2.07297C10.1384 3.68475 10.7905 5.58102 10.8869 7.5ZM9.88552 7.5C9.78624 5.72473 9.15773 3.97354 8 2.50303C6.84227 3.97354 6.21376 5.72473 6.11448 7.5H9.88552ZM5.11307 8.5H2.11344C2.29825 11.2605 4.38178 13.5011 7.06931 13.927C5.8616 12.3152 5.20952 10.419 5.11307 8.5ZM5.11307 7.5C5.20952 5.58103 5.86159 3.68478 7.06931 2.07301C4.38177 2.49893 2.29825 4.73949 2.11344 7.5H5.11307ZM9.88552 8.5H6.11448C6.21376 10.2753 6.84227 12.0265 8 13.497C9.15773 12.0265 9.78624 10.2753 9.88552 8.5Z" fill="" fill-opacity="0.9"/>
</svg>
