<svg class="be-svg" width="100%" height="100%" viewBox="0 0 16 16" fill="#000" xmlns="http://www.w3.org/2000/svg">
<path d="M6.23229 11.8891L8.35361 9.76776L9.06072 10.4749L6.9394 12.5962C5.96309 13.5725 4.38017 13.5725 3.40386 12.5962C2.42755 11.6199 2.42755 10.037 3.40386 9.06066L5.52518 6.93934L6.23229 7.64644L4.11097 9.76776C3.52518 10.3536 3.52518 11.3033 4.11097 11.8891C4.69676 12.4749 5.6465 12.4749 6.23229 11.8891Z" fill="" fill-opacity="0.9"/>
<path d="M10.4749 9.06066L9.76783 8.35355L11.8891 6.23223C12.4749 5.64644 12.4749 4.6967 11.8891 4.11091C11.3034 3.52512 10.3536 3.52512 9.76782 4.11091L7.6465 6.23223L6.9394 5.52512L9.06072 3.4038C10.037 2.42749 11.6199 2.42749 12.5963 3.4038C13.5726 4.38011 13.5726 5.96303 12.5963 6.93934L10.4749 9.06066Z" fill="" fill-opacity="0.9"/>
<path d="M9.06087 6.23225L6.23244 9.06068L6.93955 9.76778L9.76798 6.93936L9.06087 6.23225Z" fill="" fill-opacity="0.9"/>
</svg>
