<svg class="be-svg" width="100%" height="100%" viewBox="0 0 16 16" fill="#000" xmlns="http://www.w3.org/2000/svg">
<path d="M10.6858 1C10.7724 1.78958 10.4538 2.58273 9.98364 3.15353C9.51181 3.72324 8.73978 4.1671 7.98282 4.10843C7.88056 3.33311 8.26219 2.52735 8.69865 2.02125C9.18583 1.45099 10.0072 1.02742 10.6858 1Z" fill="" fill-opacity="0.9"/>
<path d="M13.1277 5.60474C12.9822 5.69544 11.6658 6.51624 11.6822 8.16735C11.7001 10.1607 13.3917 10.8541 13.4878 10.8935C13.4901 10.8945 13.4919 10.8952 13.4919 10.8952C13.491 10.8979 13.4893 10.9033 13.4868 10.9115C13.4444 11.0464 13.1713 11.9167 12.5576 12.8138C11.9956 13.6358 11.413 14.4533 10.494 14.47C10.0522 14.4785 9.75708 14.3508 9.45018 14.218C9.1291 14.0791 8.79514 13.9346 8.26696 13.9346C7.71347 13.9346 7.36398 14.0836 7.02734 14.2271C6.73567 14.3514 6.45365 14.4716 6.05696 14.4873C5.17032 14.521 4.49451 13.5998 3.92782 12.7812C2.76867 11.1063 1.88341 8.04809 3.07299 5.98448C3.66244 4.95912 4.71823 4.30991 5.86367 4.29291C6.35713 4.28421 6.83526 4.47406 7.25372 4.64022C7.57365 4.76725 7.8587 4.88043 8.08903 4.88043C8.29595 4.88043 8.57336 4.77102 8.89682 4.64344C9.40607 4.44259 10.0295 4.19671 10.6716 4.26193C11.1111 4.28002 12.3459 4.43904 13.1385 5.59791C13.1364 5.59931 13.1328 5.60158 13.1277 5.60474Z" fill="" fill-opacity="0.9"/>
</svg>
