<svg class="be-svg" width="100%" height="100%" viewBox="0 0 16 16" fill="#000" xmlns="http://www.w3.org/2000/svg">
<path d="M12.5179 1.33919C12.2975 1.11875 11.9449 1.10385 11.7067 1.30492L7.66167 4.71867L6.89055 3.94755C6.65623 3.71324 6.27633 3.71324 6.04202 3.94755L3.93734 6.05223C3.70302 6.28655 3.70302 6.66645 3.93734 6.90076L6.16478 9.12821L2.05713 13.2359L2.76424 13.943L6.87189 9.83532L9.09922 12.0626C9.33353 12.297 9.71343 12.297 9.94774 12.0626L12.0524 9.95796C12.2867 9.72364 12.2867 9.34375 12.0524 9.10943L11.2813 8.33831L14.6951 4.29331C14.8961 4.05506 14.8812 3.70252 14.6608 3.48208L12.5179 1.33919ZM12.0707 2.30621L13.6938 3.92927L9.92441 8.39563L11.0625 9.53369L9.52348 11.0727L4.92729 6.4765L6.46628 4.9375L7.60435 6.07557L12.0707 2.30621Z" fill="" fill-opacity="0.9"/>
</svg>
