<svg class="be-svg" width="100%" height="100%" viewBox="0 0 16 16" fill="#000" xmlns="http://www.w3.org/2000/svg">
<path d="M7 5.25H4V4.25H7V5.25Z" fill="" fill-opacity="0.9"/>
<path d="M1.50024 2.50014C1.50017 2.22394 1.72405 2 2.00024 2H14.0002C14.2763 2 14.5002 2.22377 14.5002 2.49986L14.5012 6.99988C14.5013 7.27608 14.2774 7.50002 14.0012 7.50002H2.00119C1.7251 7.50002 1.50127 7.27624 1.50119 7.00015L1.50024 2.50014ZM2.50106 6.50002H13.5011L13.5004 3H2.50038L2.50106 6.50002Z" fill="" fill-opacity="0.9"/>
<path d="M4.00011 11.75H7.00011V10.75H4.00011V11.75Z" fill="" fill-opacity="0.9"/>
<path d="M1.50133 9.00001C1.50133 8.72387 1.72519 8.50001 2.00133 8.50001H14.0013C14.2775 8.50001 14.5013 8.72387 14.5013 9.00001V13.5C14.5013 13.7761 14.2775 14 14.0013 14H2.00133C1.72519 14 1.50133 13.7761 1.50133 13.5V9.00001ZM2.50133 13H13.5013V9.50001H2.50133V13Z" fill="" fill-opacity="0.9"/>
</svg>
