<svg class="be-svg" width="100%" height="100%" viewBox="0 0 16 16" fill="#000" xmlns="http://www.w3.org/2000/svg">
<path d="M3.99991 11L8.24266 13.5457C8.57592 13.7456 8.99991 13.5056 8.99991 13.1169V2.8831C8.99991 2.49445 8.57592 2.25439 8.24266 2.45435L3.99991 5H2.10473C1.77358 5 1.50504 5.26829 1.50473 5.59944L1.50024 10.3994C1.49993 10.731 1.76865 11 2.10024 11H3.99991ZM4.99991 5.56619L7.99991 3.76619V12.2338L4.99991 10.4338V5.56619ZM3.99991 10H2.50062L2.50435 6H3.99991V10Z" fill="" fill-opacity="0.9"/>
<path d="M13.515 5.72686C13.194 5.00368 12.7215 4.34191 12.1209 3.78131L12.8032 3.05025C13.4996 3.70026 14.0521 4.47194 14.429 5.32122C14.8059 6.1705 14.9999 7.08075 14.9999 8C14.9999 8.91925 14.8059 9.8295 14.429 10.6788C14.0521 11.5281 13.4996 12.2997 12.8032 12.9497L12.1209 12.2187C12.7215 11.6581 13.194 10.9963 13.515 10.2731C13.8358 9.55017 13.9999 8.77797 13.9999 8C13.9999 7.22203 13.8358 6.44984 13.515 5.72686Z" fill="" fill-opacity="0.9"/>
<path d="M11.5 8.00027C11.5007 7.12735 11.1403 6.24663 10.4274 5.54638L11.1282 4.83301C12.023 5.71203 12.501 6.84639 12.5 8.00113C12.499 9.15589 12.0191 10.2897 11.1227 11.1675L10.423 10.453C11.1372 9.75363 11.4992 8.87324 11.5 8.00027Z" fill="" fill-opacity="0.9"/>
</svg>
