<svg class="be-svg" width="100%" height="100%" viewBox="0 0 16 16" fill="#000" xmlns="http://www.w3.org/2000/svg">
<path d="M8 8.5C9.933 8.5 11.5 6.933 11.5 5C11.5 3.067 9.933 1.5 8 1.5C6.067 1.5 4.5 3.067 4.5 5C4.5 6.933 6.067 8.5 8 8.5ZM8 7.5C6.61929 7.5 5.5 6.38071 5.5 5C5.5 3.61929 6.61929 2.5 8 2.5C9.38071 2.5 10.5 3.61929 10.5 5C10.5 6.38071 9.38071 7.5 8 7.5Z" fill=""/>
<path d="M11.5 10.9864C10.3864 10.6698 9.21367 10.5 8 10.5C6.0334 10.5 4.17435 10.9457 2.5 11.7398V13.5H9.5V14.5H2C1.72386 14.5 1.5 14.2761 1.5 14V11.7246C1.5 11.3547 1.70302 11.0122 2.03686 10.8528C3.8494 9.98708 5.86651 9.5 8 9.5C9.20942 9.5 10.3814 9.65652 11.5 9.9498V10.9864Z" fill=""/>
<path d="M12.75 13.75V16H13.75V13.75H16V12.75H13.75V10.5H12.75V12.75H10.5V13.75H12.75Z" fill=""/>
</svg>
