<svg class="be-svg" width="100%" height="100%" viewBox="0 0 16 16" fill="#000" xmlns="http://www.w3.org/2000/svg">
<path d="M10.1536 10.7038L10.8516 9.98785C10.0271 9.14905 9.02319 8.68872 7.98486 8.68872C6.95923 8.68872 5.96704 9.13806 5.14819 9.9577L5.84595 10.6735C6.50903 10.0049 7.26538 9.68872 7.98486 9.68872C8.71533 9.68872 9.4834 10.0145 10.1536 10.7038Z" fill="" fill-opacity="0.9"/>
<path d="M12.1785 8.6272L12.8767 7.91101C11.5029 6.49567 9.77637 5.71283 7.9856 5.71283C6.20728 5.71283 4.49219 6.48474 3.12329 7.88123L3.82153 8.59729C5.02856 7.35767 6.50391 6.71283 7.9856 6.71283C9.479 6.71283 10.9658 7.36804 12.1785 8.6272Z" fill="" fill-opacity="0.9"/>
<path d="M14.1331 6.62256L14.8315 5.90631C12.9297 3.94031 10.5042 2.8493 7.98584 2.8493C5.47998 2.8493 3.06616 3.92938 1.1687 5.87677L1.86694 6.59296C3.59912 4.80591 5.77148 3.8493 7.98584 3.8493C10.2124 3.8493 12.3962 4.81647 14.1331 6.62256Z" fill="" fill-opacity="0.9"/>
<path d="M9 12.5C9 13.0523 8.55225 13.5 8 13.5C7.44775 13.5 7 13.0523 7 12.5C7 11.9477 7.44775 11.5 8 11.5C8.55225 11.5 9 11.9477 9 12.5Z" fill="" fill-opacity="0.9"/>
</svg>
