<svg xmlns="http://www.w3.org/2000/svg" viewBox="0 0 74.55 77.22">
    <g id="图层_1-2" data-name="图层 1">
        <path class="cls-1"
              d="M13.33,76.61a4.26,4.26,0,0,1-1.48-3.22c0-1.39,0-3,0-4.06a4.58,4.58,0,0,1,1-3,2.89,2.89,0,0,0,.43-1.73c0-.09,0-.19,0-.29-.05-1.66-.36-13.65-.65-14.82s-.53-17.38-.61-19.17a10.88,10.88,0,0,1,1-4.51,32,32,0,0,1,2.6-3.67A7.37,7.37,0,0,0,17,19L18.89,0H0V61.29A16,16,0,0,0,14.4,77.22,3.1,3.1,0,0,1,13.33,76.61Z"/>
        <path class="cls-1"
              d="M26.76,0l1.91,19A7.29,7.29,0,0,0,30,22.16a30.72,30.72,0,0,1,2.6,3.67,10.88,10.88,0,0,1,1,4.51c-.07,1.79-.3,17.91-.61,19.17s-.6,13.16-.64,14.82c0,.1,0,.2,0,.29a2.89,2.89,0,0,0,.43,1.73,4.47,4.47,0,0,1,1,3c0,1.07,0,2.67,0,4.06a4.23,4.23,0,0,1-1.48,3.22,3,3,0,0,1-1.07.61,16,16,0,0,0,14.4-15.93V0Z"/>
        <rect class="cls-1" x="60" y="0.39" width="14.55" height="76.45"/>
    </g>
</svg>
